<svg width="38" height="38" viewBox="0 0 38 38" fill="none" xmlns="http://www.w3.org/2000/svg">
<rect y="0.182892" width="37.5" height="37.5" rx="10" fill="#05445E"/>
<path d="M14.7621 26.8747L10 27.9329L11.0582 23.1708C10.3829 21.9079 10 20.4651 10 18.9329C10 13.9623 14.0294 9.93289 19 9.93289C23.9705 9.93289 28 13.9623 28 18.9329C28 23.9034 23.9705 27.9329 19 27.9329C17.4677 27.9329 16.025 27.55 14.7621 26.8747ZM15.0227 24.9728L15.6109 25.2873C16.6442 25.8399 17.7989 26.1329 19 26.1329C22.9765 26.1329 26.2 22.9094 26.2 18.9329C26.2 14.9564 22.9765 11.7329 19 11.7329C15.0235 11.7329 11.8 14.9564 11.8 18.9329C11.8 20.1339 12.0929 21.2886 12.6455 22.322L12.9601 22.9102L12.3707 25.5621L15.0227 24.9728Z" fill="#75E6DA"/>
</svg>
