<svg width="38" height="39" viewBox="0 0 38 39" fill="none" xmlns="http://www.w3.org/2000/svg">
<rect y="0.682892" width="37.5" height="37.5" rx="10" fill="#05445E"/>
<path d="M26.25 25.4329V19.5634C26.25 19.155 26.1667 18.751 26.0051 18.3759C25.8435 18.0009 25.6071 17.6628 25.3102 17.3824L19.7805 12.1564C19.502 11.8931 19.1333 11.7464 18.75 11.7464C18.3667 11.7464 17.998 11.8931 17.7195 12.1564L12.1897 17.3824C11.8929 17.6628 11.6565 18.0009 11.4949 18.3759C11.3333 18.751 11.25 19.155 11.25 19.5634V25.4329C11.25 25.8307 11.408 26.2123 11.6893 26.4936C11.9706 26.7749 12.3522 26.9329 12.75 26.9329H24.75C25.1478 26.9329 25.5294 26.7749 25.8107 26.4936C26.092 26.2123 26.25 25.8307 26.25 25.4329Z" stroke="#75E6DA" stroke-width="2.17" stroke-linecap="round" stroke-linejoin="round"/>
</svg>
