<svg width="40" height="41" viewBox="0 0 40 41" fill="none" xmlns="http://www.w3.org/2000/svg">
<path d="M12.7178 23.4645C10.8878 20.5159 6.65781 20.3497 4.60201 23.1455L0.0999985 29.2681C-0.156664 29.6517 0.108332 30.1505 0.594158 30.1996L8.07582 30.9297C12.1177 31.3241 14.8593 26.9151 12.7178 23.4645ZM0.617491 25.0079L2.83748 21.686C5.01896 18.4217 3.94156 13.9899 0.504993 12.0915C0.282496 11.9687 0 12.116 0 12.3547V24.8475C0 25.1567 0.440827 25.2718 0.617491 25.0079ZM1.52081 33.3081L17.7206 40.0345C18.1622 40.2225 18.6664 39.9247 18.6664 39.4774C18.6664 36.6161 16.4996 34.2197 13.6528 33.9326L1.70414 32.7272C1.33331 32.6888 1.18498 33.1561 1.52081 33.3081ZM1.49498 9.79178C5.29355 11.8807 10.0635 10.606 12.3136 6.90064L14.9498 2.55972C15.3114 2.01799 14.6506 1.38955 14.0515 1.70492L1.48415 9.27153C1.27831 9.39584 1.28498 9.67515 1.49498 9.79178ZM19.9997 14.309C23.9763 14.309 26.4114 9.94713 24.3247 6.56209L21.1355 1.38878C20.8747 0.998978 20.4372 0.804077 19.9997 0.804077C19.5622 0.804077 19.1247 0.998978 18.8639 1.38878L15.6747 6.56209C13.588 9.94713 16.0231 14.309 19.9997 14.309ZM39.4944 12.0915C36.0578 13.9904 34.9805 18.4225 37.1621 21.6871L39.3819 25.0086C39.5578 25.2726 39.9994 25.1575 39.9994 24.8475V12.3547C39.9994 12.116 39.7169 11.9687 39.4944 12.0915ZM27.6856 6.90032C29.9358 10.6057 34.706 11.8803 38.5044 9.79101C38.7153 9.67438 38.7211 9.39507 38.5153 9.27077L25.948 1.70492C25.3488 1.38955 24.688 2.01799 25.0496 2.55972L27.6856 6.90032ZM38.2953 32.7272L26.3466 33.932C23.4998 34.2191 21.333 36.6154 21.333 39.4766C21.333 39.9247 21.8372 40.2217 22.2788 40.0337L38.4786 33.3073C38.8144 33.1561 38.6661 32.6888 38.2953 32.7272ZM35.3977 23.1453C33.3417 20.3496 29.1118 20.516 27.2819 23.4647C25.1405 26.9153 27.8822 31.3241 31.924 30.9297L39.4061 30.1996C39.8919 30.1497 40.1569 29.6517 39.9003 29.2681L35.3977 23.1453ZM19.9997 16.7645C16.3494 16.7645 14.1188 20.7739 16.0436 23.8755C17.8647 26.81 22.1347 26.81 23.9558 23.8755C25.8806 20.7739 23.65 16.7645 19.9997 16.7645Z" fill="#75E6DA"/>
</svg>
