<svg width="45" height="46" viewBox="0 0 45 46" fill="none" xmlns="http://www.w3.org/2000/svg">
<path d="M0 10.9794C0 5.45653 4.47715 0.97937 10 0.97937H35C40.5228 0.97937 45 5.45652 45 10.9794V35.178C45 40.7008 40.5228 45.178 35 45.178H10C4.47715 45.178 0 40.7008 0 35.178V10.9794Z" fill="#05445E"/>
<path d="M18.75 21.2371V15.7123L28.125 23.0787L18.75 30.4451V24.9203H1.875V21.2371H18.75ZM4.60837 28.6035H8.59035C10.8155 34.0028 16.2049 37.8116 22.5 37.8116C30.7843 37.8116 37.5 31.2155 37.5 23.0787C37.5 14.9419 30.7843 8.34582 22.5 8.34582C16.2049 8.34582 10.8155 12.1546 8.59035 17.5539H4.60837C6.99763 10.0823 14.1044 4.6626 22.5 4.6626C32.8552 4.6626 41.25 12.9078 41.25 23.0787C41.25 33.2495 32.8552 41.4948 22.5 41.4948C14.1044 41.4948 6.99763 36.0751 4.60837 28.6035Z" fill="#75E6DA"/>
</svg>
