<svg width="38" height="39" viewBox="0 0 38 39" fill="none" xmlns="http://www.w3.org/2000/svg">
<rect y="0.682877" width="37.5" height="37.5" rx="10" fill="#05445E"/>
<path d="M28 28.6829H25.75V26.9686C25.75 25.5484 24.239 24.3972 22.375 24.3972H15.625C13.761 24.3972 12.25 25.5484 12.25 26.9686V28.6829H10V26.9686C10 24.6017 12.5184 22.6829 15.625 22.6829H22.375C25.4816 22.6829 28 24.6017 28 26.9686V28.6829ZM19 20.9686C15.2721 20.9686 12.25 18.666 12.25 15.8257C12.25 12.9854 15.2721 10.6829 19 10.6829C22.7279 10.6829 25.75 12.9854 25.75 15.8257C25.75 18.666 22.7279 20.9686 19 20.9686ZM19 19.2543C21.4852 19.2543 23.5 17.7193 23.5 15.8257C23.5 13.9322 21.4852 12.3972 19 12.3972C16.5147 12.3972 14.5 13.9322 14.5 15.8257C14.5 17.7193 16.5147 19.2543 19 19.2543Z" fill="#75E6DA"/>
</svg>
